<?xml version="1.0" encoding="UTF-8" standalone="no"?>
<!-- Created with Inkscape (http://www.inkscape.org/) -->

<svg
   width="210mm"
   height="25mm"
   viewBox="0 0 210 25"
   version="1.1"
   id="svg1"
   xml:space="preserve"
   xmlns:xlink="http://www.w3.org/1999/xlink"
   xmlns="http://www.w3.org/2000/svg"
   xmlns:svg="http://www.w3.org/2000/svg"><defs
     id="defs1"><color-profile
       name="ACES-CG-Linear-Academy-Color-Encoding-System-AP1"
       xlink:href="file:///System/Library/ColorSync/Profiles/ACESCG%20Linear.icc"
       id="color-profile2" /><linearGradient
       id="swatch2"><stop
         style="stop-color:#978e4a;stop-opacity:1;"
         offset="0"
         id="stop2" /></linearGradient></defs><g
     id="layer1"
     style="mix-blend-mode:normal;fill:#978e4a;fill-opacity:1;fill-rule:nonzero"><rect
       style="opacity:1;mix-blend-mode:normal;fill:#091c35;fill-opacity:1;fill-rule:nonzero;stroke-width:0.264583"
       id="rect5"
       width="244.55679"
       height="339.74356"
       x="-13.911913"
       y="-12.4475" /><path
       id="rect3"
       style="opacity:1;fill:#ffffff;stroke-width:0.228109"
       d="M 14.776034,17.614161 H 217.18791 c 8.24988,0 -1.58316,8.028 -1.58316,18 V 274.92123 c 0,9.972 -6.64159,18 -14.89147,18 H -3.5291152 c -8.2498738,0 3.45826114,-0.33993 3.41367978,-10.31183 L -1.2438925,30.197567 c -0.044581,-9.9719 7.7700524,-12.583406 16.0199265,-12.583406 z" /><g
       style="fill:#ffffff;fill-opacity:1"
       id="g4"
       transform="matrix(0.32185638,0,0,0.32185638,6.6124874,6.2630422)"><path
         d="M 0,0.45 V 2.562 H 2.103 V 4.809 H 4.295 V 0.449 H 0 Z M 14.228,12 c 0,-1.933 1.297,-3.955 4.026,-3.955 2.73,0 2.461,0.45 3.132,1.348 V 6.472 H 15.57 V 4.449 h 8.053 v 8.99 h 1.342 v 2.246 h -3.579 v -1.123 c -0.67,0.899 -1.566,1.348 -3.132,1.348 -2.729,0 -4.026,-1.978 -4.026,-3.955 V 12 Z m 7.113,0 c 0,-1.124 -0.805,-1.888 -2.46,-1.888 -1.656,0 -2.46,0.81 -2.46,1.888 0,1.079 0.804,1.932 2.46,1.932 1.655,0 2.46,-0.809 2.46,-1.932 z m 4.609,-1.888 c 0,-3.55 1.744,-5.842 5.01,-5.842 3.266,0 4.653,1.842 4.653,4.494 H 33.376 C 33.286,7.371 32.839,6.292 31.05,6.292 c -1.79,0 -2.909,0.899 -2.909,3.82 0,2.922 0.806,3.82 2.909,3.82 2.102,0 2.236,-1.078 2.326,-2.471 h 2.237 c 0,2.696 -1.745,4.494 -4.653,4.494 -2.908,0 -5.01,-2.337 -5.01,-5.843 z m 14.003,1.034 V 15.73 H 37.715 V 0 h 2.237 v 9.124 h 1.745 l 3.132,-4.63 h 2.73 l -3.848,5.663 3.847,5.618 H 44.83 l -3.132,-4.584 h -1.745 z m 19.73,-1.034 c 0,3.326 -1.297,5.843 -4.921,5.843 -3.624,0 -2.685,-0.584 -3.356,-1.573 V 15.73 H 49.17 V 0 h 2.237 v 5.843 c 0.671,-0.99 1.79,-1.573 3.356,-1.573 3.624,0 4.921,2.561 4.921,5.842 z m -2.237,0 c 0,-2.696 -0.805,-3.82 -2.997,-3.82 -2.193,0 -2.998,1.124 -2.998,3.82 0,2.697 0.805,3.82 2.998,3.82 2.192,0 2.997,-1.123 2.997,-3.82 z M 61.159,12 c 0,-1.933 1.297,-3.955 4.026,-3.955 2.73,0 2.461,0.45 3.132,1.348 V 6.472 H 62.501 V 4.449 h 8.053 v 8.99 h 1.342 v 2.246 h -3.579 v -1.123 c -0.67,0.899 -1.566,1.348 -3.132,1.348 -2.729,0 -4.026,-1.977 -4.026,-3.955 V 12 Z m 7.113,0 c 0,-1.124 -0.805,-1.888 -2.46,-1.888 -1.656,0 -2.46,0.81 -2.46,1.888 0,1.079 0.804,1.933 2.46,1.933 1.655,0 2.46,-0.81 2.46,-1.933 z m 5.235,2.517 V 12.27 c 2.058,1.258 3.087,1.707 4.742,1.707 1.656,0 1.97,-0.629 1.97,-1.348 0,-0.719 -0.582,-1.213 -2.64,-1.663 -3.222,-0.719 -4.072,-1.753 -4.072,-3.55 0,-1.798 1.61,-3.146 3.982,-3.146 2.371,0 2.998,0.404 4.071,1.168 v 2.023 c -1.655,-0.81 -3.087,-1.169 -4.295,-1.169 -1.208,0 -1.52,0.495 -1.52,1.034 0,0.54 0.268,1.078 2.191,1.573 3.311,0.899 4.519,1.618 4.519,3.685 0,2.068 -1.61,3.371 -4.206,3.371 -2.594,0 -3.131,-0.36 -4.742,-1.438 z m 10.425,-4.405 c 0,-3.55 1.387,-5.842 4.831,-5.842 3.445,0 4.832,2.112 4.832,5.618 v 1.258 h -7.382 c 0.18,1.573 0.806,2.831 3.4,2.831 2.596,0 1.79,0 3.222,-0.404 V 15.55 C 91.09,16 90.464,16 89.614,16 84.558,16 83.932,12.36 83.932,10.157 Z M 91.358,9.124 C 91.314,7.146 90.553,6.337 88.763,6.337 c -1.79,0 -2.505,0.989 -2.594,2.787 h 5.19 z"
         fill="#091c35"
         id="path1"
         style="fill:#ffffff;fill-opacity:1" /><path
         d="M 9.306,7.73 V 7.37 c 2.237,-0.314 2.818,-1.662 2.818,-3.145 0,-1.483 -1.297,-3.82 -4.474,-3.82 H 5.86 v 2.022 h 1.79 c 1.7,0 2.237,0.54 2.237,1.978 0,1.438 -0.537,2.202 -2.237,2.202 H 2.058 V 15.73 H 7.65 c 3.669,0 4.922,-2.112 4.922,-4.27 0,-2.157 -0.671,-3.37 -3.266,-3.685 z m -1.61,5.978 H 4.34 V 8.629 h 3.355 c 2.013,0 2.684,0.54 2.684,2.652 0,2.112 -0.67,2.427 -2.684,2.427 z M 2.103,0.45 H 0 V 2.562 H 2.103 V 0.449 Z"
         fill="#091c35"
         id="path2"
         style="fill:#ffffff;fill-opacity:1" /></g></g></svg>
